<svg width="96" height="96" viewBox="0 0 96 96" fill="none" xmlns="http://www.w3.org/2000/svg" role="img" aria-labelledby="title desc">
  <title id="title">Detabot logo</title>
  <desc id="desc">Modern dental chatbot logo with a tooth, chat bubble, and AI spark.</desc>
  <rect width="96" height="96" rx="24" fill="#B3197F"/>
  <path d="M18 55.5C18 37.6 31.4 24 48 24s30 13.6 30 31.5C78 72.7 64.6 84 48 84S18 72.7 18 55.5Z" fill="#70145F"/>
  <path d="M48 17.5c-6.9 0-10.6 4.5-14.3 4.5-3 0-5.8-1.5-8.3-1.5-6.4 0-11.4 6.1-11.4 14 0 8.5 4.6 18.4 7.7 25.9 3 7.2 5.7 14.1 10.6 14.1 4.2 0 4.1-8.8 7.2-15.7 2-4.4 4.5-6.7 8.5-6.7s6.5 2.3 8.5 6.7c3.1 6.9 3 15.7 7.2 15.7 4.9 0 7.6-6.9 10.6-14.1 3.1-7.5 7.7-17.4 7.7-25.9 0-7.9-5-14-11.4-14-2.5 0-5.3 1.5-8.3 1.5-3.7 0-7.4-4.5-14.3-4.5Z" fill="#FFFFFF"/>
  <path d="M34.5 33.4c3.9 2.2 8.6 3.4 13.5 3.4s9.6-1.2 13.5-3.4" stroke="#49BDE8" stroke-width="4" stroke-linecap="round"/>
  <path d="M60.5 49.5h5.7c6.2 0 11.3 4.7 11.3 10.5S72.4 70.5 66.2 70.5h-5.8l-8.6 6v-6h-5.5c-6.2 0-11.3-4.7-11.3-10.5s5.1-10.5 11.3-10.5h14.2Z" fill="#49BDE8"/>
  <circle cx="49" cy="60" r="2.6" fill="#FFFFFF"/>
  <circle cx="57" cy="60" r="2.6" fill="#FFFFFF"/>
  <circle cx="65" cy="60" r="2.6" fill="#FFFFFF"/>
  <path d="M72.5 22.5l1.8 4.3 4.2 1.7-4.2 1.8-1.8 4.2-1.7-4.2-4.3-1.8 4.3-1.7 1.7-4.3Z" fill="#FFFFFF"/>
</svg>
